<svg width="814" height="814" fill="none" xmlns="http://www.w3.org/2000/svg"><path d="M676.369.693H136.617C62.099.693.672 62.133.672 136.665v540.867c0 74.533 61.427 135.972 135.945 135.972h540.759c74.518 0 135.945-61.439 135.945-135.972V136.665C812.314 61.125 751.894.693 676.369.693zm-392.73 513.672c-3.021 1.007-4.028 1.007-6.042 1.007h-1.007c-2.014 0-4.028 0-5.035-1.007h-1.007c-2.014-1.007-4.028-2.014-5.035-3.021l-1.007-1.008c-1.007-1.007-2.014-3.021-3.021-5.036-1.007-3.021-1.007-4.028-1.007-6.043 0-3.021 0-4.029 1.007-6.043L394.409 99.399c0-1.007 1.007-2.014 2.014-3.022 1.007-2.014 3.021-3.021 4.028-4.028 2.014-1.008 3.021-2.015 5.035-2.015 5.035-2.014 7.049-1.007 11.077 0h1.007s1.007 0 1.007 1.007c0 0 1.007 0 1.007 1.008 1.007 0 1.007 1.007 1.007 1.007l1.007 1.007 1.007 1.007 1.007 1.007 1.007 1.008c0 1.007 1.007 1.007 1.007 1.007s0 1.007 1.007 1.007c0 1.007 0 1.007 1.007 2.014V314.94l65.455-65.468c6.042-6.043 18.126-6.043 24.168 0 3.021 3.021 5.035 7.05 5.035 12.086 0 5.036-2.014 9.065-5.035 12.087l-94.658 94.676c-2.014 2.015-3.021 3.022-6.042 4.029-5.035 2.014-9.063 2.014-13.091 0-4.028-2.014-8.056-5.036-10.07-9.065-1.007-2.014-1.007-4.029-1.007-6.043V210.191l-76.532 224.605 22.154-22.158c6.042-6.043 18.126-6.043 24.168 0 3.021 3.022 5.035 8.058 5.035 12.086 0 5.036-2.014 9.065-5.035 12.087l-74.518 74.533c-1.007 1.007-3.021 2.014-4.028 3.021zm268.869-194.389L419.584 713.791c0 1.007-1.007 2.014-2.014 3.022-1.007 2.014-3.021 3.021-4.028 4.028-2.014 1.007-3.021 2.015-5.035 2.015-3.021 1.007-4.028 1.007-6.042 1.007-2.014 0-3.021 0-5.035-1.007h-1.007s-1.007 0-1.007-1.007c0 0-1.007-.001-1.007-1.008-1.007 0-1.007-1.007-1.007-1.007l-1.007-1.007-1.007-1.007-1.007-1.007-1.007-1.008c0-1.007-1.007-1.007-1.007-1.007s0-1.007-1.007-1.007c0-1.007 0-1.007-1.007-2.014V498.25l-65.455 65.468c-6.042 6.043-18.126 6.043-24.168 0-3.021-3.022-5.035-7.05-5.035-12.086 0-5.036 2.014-9.065 5.035-12.087l94.658-94.677c2.014-2.014 3.021-3.021 6.042-4.028 5.035-2.015 9.063-2.015 13.091 0 4.028 2.014 8.056 5.036 10.07 9.064 1.007 2.015 1.007 4.029 1.007 6.044v146.044l75.525-223.599-22.154 22.159c-6.042 6.043-18.126 6.043-24.168 0-3.021-3.022-5.035-8.058-5.035-12.087 0-5.036 2.014-9.065 5.035-12.086l74.518-74.533c1.007-1.007 3.021-2.014 5.035-3.021 3.021-1.008 4.028-1.008 6.042-1.008 3.021 0 4.028 0 6.042 1.008h1.007c2.014 1.007 4.028 2.014 5.035 3.021l1.007 1.007c1.007 1.008 2.014 3.022 3.021 5.036 1.007 3.022 1.007 4.029 1.007 6.044 0 3.021 0 4.028-1.007 6.043z" fill="#000"/></svg>