<svg viewBox="0 0 109 24" xmlns="http://www.w3.org/2000/svg" xmlns:xlink="http://www.w3.org/1999/xlink"><g style="mix-blend-mode:normal" fill="#f40"><use xlink:href="#b" style="mix-blend-mode:normal"/><use xlink:href="#c" style="mix-blend-mode:normal"/><use xlink:href="#d" style="mix-blend-mode:normal"/><use xlink:href="#e" style="mix-blend-mode:normal"/><use xlink:href="#f" style="mix-blend-mode:normal"/></g><defs><path id="b" d="M22.735 23.171a.5.5 0 0 1-.376.829h-5.907a.997.997 0 0 1-.745-.333L6.293 13.141v10.36a.5.5 0 0 1-.5.5H.5a.5.5 0 0 1-.5-.5v-23a.5.5 0 0 1 .5-.5h5.293a.5.5 0 0 1 .5.5v9.815l9.141-9.99c.19-.207.457-.325.738-.325h5.762a.5.5 0 0 1 .366.841l-9.851 10.563 10.287 11.767z"/><path id="c" d="M45.991 24a.5.5 0 0 1-.459-.301l-2.024-4.669h-10.67l-2.024 4.669a.499.499 0 0 1-.459.301h-5.212a.5.5 0 0 1-.453-.712l10.782-23A.5.5 0 0 1 35.925 0h4.358c.194 0 .37.112.453.287l10.815 23a.5.5 0 0 1-.452.713h-5.108zm-11.135-9.668h6.635l-3.317-7.694-3.317 7.694z"/><path id="d" d="M55.525 24a.5.5 0 0 1-.5-.5V.5a.5.5 0 0 1 .5-.5h5.293a.5.5 0 0 1 .5.5v18.428h9.759a.5.5 0 0 1 .5.5V23.5a.5.5 0 0 1-.5.5H55.525z"/><path id="e" d="M75.279.5a.5.5 0 0 1 .5-.5h9.315c2.667 0 4.959.477 6.874 1.43 1.938.953 3.42 2.338 4.446 4.153 1.026 1.793 1.539 3.926 1.539 6.4 0 2.496-.513 4.652-1.539 6.468-1.003 1.793-2.474 3.166-4.412 4.119-1.915.953-4.218 1.43-6.908 1.43h-9.315a.5.5 0 0 1-.5-.5V.5zm9.37 18.462c2.371 0 4.138-.579 5.301-1.736 1.163-1.157 1.744-2.905 1.744-5.242 0-2.338-.581-4.074-1.744-5.209-1.163-1.157-2.93-1.736-5.301-1.736h-3.078v13.923h3.078z"/><path id="f" d="M102.913 24a.5.5 0 0 1-.5-.5V.5a.5.5 0 0 1 .5-.5h5.293a.5.5 0 0 1 .5.5v23a.5.5 0 0 1-.5.5h-5.293z"/></defs></svg>