<svg width="1171" height="1248" fill="none" xmlns="http://www.w3.org/2000/svg"><path d="M67.721 863.185c11.71-2.565 23.576-5.502 35.598-9.261-9.547-13.053-33.422-14.725-35.598 9.261zm122.584 371.035c-8.243 6.28-17.322-6.9-9.081-13.18l38.604-29.42c-6.494-3.16-13.537-8.43-20.88-15.84-22.753-14.8-80.196-126.91-92.865-152.98-24.281-49.974-46.699-103.418-52.233-135.847-2.097-12.288-2.566-24.477.203-34.641L9.68 865.11c-9.795 2.806-13.85-12.859-4.056-15.665l53.365-15.39c23.173-6.684 44.066-7.575 60.858 14.175a271.458 271.458 0 0 0 10.719-4.314c104.983-44.899 149.338-126.124 295.013-171.296 77.031-23.886 150.864-28.705 200.603-9.137 27.807-16.483 67.268-37.098 98.692-20.241L1109.16 31.085c35.84-57.095 84.08-28.497 49.16 28.959l-401.254 660.29c86.344 60.757 20.584 140.875-62.497 102.072l-5.068 7.987c86.325 29.492 84.455 112.612 15.46 131.015 31.491 40.302-11.767 97.632-60.001 95.322 9.81 13.79 8.396 32.53 2.768 47.86-12.924 35.21-39.346 33.37-70.435 26.21-17.067-3.93-35.601-10.42-51.572-17.44l-71.097 119.58c-23.89 40.18-112.689-9.76-84.74-53.59l25.444-39.91c-18.609-4.39-38.696-5.94-59.748-4.56-25.876 1.68-51.509 7.65-75.976 16.56.896 28.24-4.974 33.77-22.848 47.39l-46.451 35.39zm53.857-76.7c-9.12 3.85-18.28 8.19-27.447 13.02 4.744 3.89 9.078 6.45 12.897 7.68 12.736 4.12 16.438-12.23 14.55-20.7zm-39.477 1.22c22.634-12.37 46.306-22.43 70.903-29.52-9.897-4.59-17.919-10.82-22.814-17.42-6.243-8.41 5.925-18.41 12.168-10 4.091 5.52 11.81 10.86 21.619 14.5 19.718 7.3 29.398 3.55 47.945 2.21 25.047-1.8 48.347.6 69.985 6.56l41.999-65.87c-28.615-38.72-2.781-77.16 36.609-87.045-4.241-4.641-7.732-9.684-10.091-15.25-13.343 9.741-27.491 17.763-43.667 23.625-38.582 13.982-87.934 15.216-164.251-2.609-4.162-.967-6.791-5.3-5.872-9.678.92-4.379 5.039-7.144 9.202-6.177 73.145 17.084 119.901 16.099 155.896 3.054 15.233-5.52 28.679-13.288 41.491-22.817 21.837-16.239 43.68-37.911 62.489-59.584 20.31-23.403 35.676-44.74 61.177-63.623 45.468-33.67 114.23-53.678 136.799-111.295 5.744-14.663 10.878-36.262-3.839-47.154-28.78-21.298-73.149 8.466-99.071 23.09-78.318 44.194-149.273 26.502-221.987 67.989-8.96 5.109-16.344-9.219-7.386-14.328 71.997-41.077 140.533-25.475 213.193-63.183-46.048-12.754-110.123-6.806-177.245 14.007-144.16 44.701-188.11 125.688-293.559 170.786-23.383 10-45.992 15.926-68.01 20.664.198 1.461.424 2.935.677 4.415 5.28 30.941 27.374 83.208 51.209 132.103 21.313 43.72 52.271 106.28 84.431 142.55zm540.142-393.568c-5.638-2.437-2.114-11.454 3.523-9.016 22.34 9.654 6.532 51.208-20.456 44.985-5.971-1.357-4.011-10.908 1.962-9.552 16.396 3.781 26.267-21.536 14.971-26.417zm-99.83 132.405a2.984 2.984 0 0 1-4.37-.089c-1.184-1.294-1.146-3.353.084-4.598 7.504-7.623 10.465-22.738 9.717-33.313-.286-4.272 5.888-4.73 6.175-.458.889 12.584-2.72 29.431-11.606 38.458zm-62.129 89.193c-3.648 1.876-6.359-3.957-2.713-5.833 8.083-4.182 11.321-17.597 9.039-26.18-1.083-4.121 4.875-5.852 5.957-1.732 3.094 11.637-1.501 28.166-12.283 33.745zm-43.318 92.01c-5.153 3.44-10.129-4.81-4.976-8.25 7.589-5.08 13.969-12.73 14.11-22.64.071-6.41 9.334-6.29 9.262.12-.19 13.36-8.047 23.85-18.396 30.77zm-21.818-108.827c-5.614-2.488-2.019-11.467 3.596-8.979 17.071 7.605 36.303-29.223 14.673-38.948-5.613-2.512-1.982-11.491 3.632-8.979 33.066 14.868 6.389 69.508-21.901 56.906zm-44.029 82.797c-5.178-3.37-.311-11.66 4.867-8.29 10.633 6.88 26.956 1.81 30.196-11.2 2.381-9.55-4.346-20.99-18.802-28.17-5.518-2.74-1.559-11.568 3.96-8.829 20.472 10.169 27.97 27.359 23.351 41.269-6.071 18.28-28.145 25.2-43.572 15.22zm-16.368 18.61l-74.617 117.03c-15.798 24.78 45.658 58 58.769 35.95l69.871-117.51c-7.452-1.27-48.924-30.69-54.023-35.47zm60.904 20.65c17.272 8.86 40.954 17.95 62.323 22.87 21.797 5.02 42.184 10.47 52.071-14.71 10.017-25.52 1.391-36.55-18.362-50.24-37.395-17.12-79.52-38.76-113.506-62.72-16.075-7.106-75.711 22.69-38.891 66.06 12.506 14.72 37.706 29.18 56.365 38.74zm-.898-112.865c31.128 20.696 91.517 55.525 117.816 59.965 48.588 8.19 81.175-43.086 54.594-70.968-6.198-6.501-15.201-10.581-23.301-14.661-20.765-10.459-117.375-59.161-133.87-51.541-14.13 15.342-30.772 31.559-46.612 44.803 3.703 14.079 20.255 25.009 31.373 32.402zm216.462-58.927c14.443-23.83 9.977-58.05-59.879-77.774-22.2-4.776-46.439-13.88-66.639-16.314-26.128 17.209-41.963 36.592-56.87 54.84a1864.688 1864.688 0 0 1-4.501 5.495c37.681 6.013 92.243 34.734 127.126 52.305 23.834 12.004 43.444 10.026 60.763-18.552zm-59.877-94.548l56.328-91.357c-24.046 37.994-66.667 58.57-103.621 80.037 15.655 3.798 31.792 7.154 47.293 11.32zm-99.649 58.634c-5.47-2.839-1.367-11.589 4.104-8.749 29.603 15.459 40.163-21.095 23.164-28.84-5.59-2.537-1.922-11.478 3.669-8.94 28.557 13.011 9.983 67.899-30.937 46.529zm-67.052-126.448c-3.451-2.241-.207-7.769 3.245-5.527 10.984 7.127 15.299 21.948 14.915 34.885-.111 4.271-6.286 4.095-6.175-.178.311-10.485-2.997-23.347-11.985-29.18zm81.908-38.988c-3.551-2.077-.548-7.757 3.003-5.68 10.662 6.247 15.98 19.083 17.462 31.321.509 4.239-5.618 5.053-6.127.815-1.219-10.078-5.5-21.278-14.338-26.456zm47.904-31.985c.501-6.407 9.763-5.606 9.262.802-1.076 13.337 11.588 26.418 24.093 24.836 11.734-1.485 38.342-21.099 36.894-33.752-.716-6.383 8.51-7.527 9.226-1.146 2.185 19.095-28.667 42.531-45.031 44.603-18.622 2.356-35.967-16.477-34.444-35.343zm100.341-34.04c15.074 16.93 10.818 41.638 3.182 61.135a119.155 119.155 0 0 1-8.018 16.57L1145.31 51.32c24.58-40.457.06-48.408-23.26-11.257l-384.672 612.78zm11.377 81.167c-15.114 24.871-29.887 50.1-45.454 74.634 62.992 26.574 114.542-25.803 45.454-74.634z" fill="#000"/></svg>