<svg width="834" height="784" viewBox="0 0 834 784" fill="none" xmlns="http://www.w3.org/2000/svg">
<ellipse cx="417" cy="392" rx="417" ry="392" fill="black"/>
<path d="M363.756 404.146C363.756 399.11 361.742 395.081 358.721 392.059C352.679 386.016 340.595 386.016 334.553 392.059V392.059C328.591 397.763 318.979 391.656 321.608 383.836L341.533 324.582C349.946 299.562 386.917 305.612 386.917 332.008V335.656C386.917 337.671 386.917 339.685 387.924 341.699C388.001 341.853 388.079 342.007 388.159 342.161C392.305 350.134 402.742 354.102 411.085 350.764V350.764C413.099 349.757 415.113 348.75 417.127 346.735L511.785 252.059C514.806 249.037 516.82 245.008 516.82 239.972C516.82 234.936 514.806 230.907 511.785 227.886C505.743 221.843 493.659 221.843 487.617 227.886V227.886C463.626 252.251 422.162 235.263 422.162 201.069V84.8634C422.162 83.8562 422.162 83.8562 422.162 82.849C422.162 81.8418 422.162 81.8418 422.162 80.8346C422.162 79.9522 422.162 79.8429 421.485 79.1521C421.275 78.9381 421.19 78.9049 421.13 78.6116V78.6116C421.003 78.0008 420.272 77.4124 419.792 77.0144V77.0144C419.561 76.8233 419.022 76.6868 418.81 76.4749L418.134 75.7986L417.127 74.7914L416.12 73.7842L415.113 72.777L414.437 72.1007C414.225 71.8888 413.927 71.7874 413.652 71.6672C413.558 71.626 413.462 71.5683 413.377 71.4874C413.056 71.184 412.415 70.6536 412.218 70.259V70.259C412.021 69.8644 411.734 69.7554 411.293 69.7554H411.226C411.132 69.7554 411.039 69.74 410.951 69.7111C408.475 68.9027 406.638 68.7836 402.588 69.3537C400.874 69.595 399.219 70.1859 397.577 70.7338V70.7338C395.807 71.3246 394.3 72.4424 392.981 73.7621C392.425 74.3183 391.769 74.9741 390.945 75.7986V75.7986C389.23 77.5142 388.542 79.9736 387.766 82.2722L256.007 472.635C255 474.65 255 475.657 255 478.679C255 480.693 255 482.707 256.007 484.722C256.784 486.276 257.561 487.231 258.338 488.512C258.828 489.318 259.368 490.098 260.035 490.765V490.765C260.967 491.697 262.761 492.629 264.62 493.561C264.916 493.71 265.242 493.787 265.573 493.787V493.787C265.905 493.787 266.231 493.867 266.532 494.005C268.255 494.794 269.255 494.794 271.112 494.794H272.119C274.133 494.794 276.147 494.794 278.161 493.787V493.787C281.642 492.046 284.599 489.362 287.351 486.609L347.776 426.172C354.393 419.554 363.756 413.504 363.756 404.146V404.146Z" fill="white"/>
<path d="M545.749 283.613C545.271 282.754 544.554 282.042 543.675 281.603V281.603C543.238 281.384 542.846 281.088 542.459 280.79C541.462 280.019 539.968 279.248 538.431 278.477C538.135 278.328 537.808 278.251 537.477 278.251V278.251C537.146 278.251 536.82 278.171 536.519 278.033C534.79 277.244 533.717 277.244 530.931 277.244C528.917 277.244 526.904 277.244 524.89 278.251V278.251C521.408 279.992 518.452 282.676 515.7 285.429L445.336 355.806C442.315 358.827 440.301 362.856 440.301 367.892C440.301 372.928 442.315 376.957 445.336 379.979C451.378 386.022 463.463 386.022 469.505 379.979V379.979C474.997 374.485 484.148 380.156 481.672 387.52L460.628 450.101C452.38 474.631 416.134 468.7 416.134 442.821V436.382C416.134 434.367 416.133 432.353 415.126 430.339C415.049 430.185 414.971 430.03 414.891 429.877C410.746 421.904 400.308 417.936 391.965 421.274V421.274C389.951 422.281 387.938 423.288 385.923 425.303L291.265 519.979C288.244 523.001 286.23 527.03 286.23 532.066C286.23 537.102 288.244 541.13 291.265 544.152C297.307 550.195 309.391 550.195 315.433 544.152V544.152C339.586 519.995 380.888 537.101 380.888 571.261V688.182C380.888 689.189 380.888 689.189 380.888 690.196C380.888 691.203 380.888 691.203 380.888 692.211C380.888 693.093 380.888 693.202 381.566 693.893C381.775 694.107 381.86 694.14 381.921 694.433V694.433C382.047 695.044 382.778 695.633 383.258 696.031V696.031C383.489 696.222 384.029 696.358 384.24 696.57L384.916 697.247L385.923 698.254L386.93 699.261L387.937 700.268L388.614 700.944C388.825 701.156 389.124 701.258 389.398 701.378C389.492 701.419 389.589 701.477 389.674 701.558C389.994 701.861 390.635 702.392 390.833 702.786V702.786C391.03 703.181 391.316 703.29 391.757 703.29H391.773C391.9 703.29 392.024 703.32 392.138 703.375C394.039 704.297 395.045 704.297 397 704.297C397.82 704.297 399.305 704.297 401.456 703.755C402.524 703.486 403.625 702.971 404.659 702.593V702.593C407.008 701.734 408.978 700.374 410.746 698.606C411.145 698.207 411.593 697.759 412.105 697.247V697.247C413.821 695.531 414.509 693.071 415.285 690.773L547.044 300.41C548.051 298.395 548.051 297.388 548.051 294.367C548.051 293.2 548.051 292.034 547.855 290.868C547.564 289.129 547.209 287.361 546.691 285.675C546.455 284.908 546.121 284.282 545.749 283.613Z" fill="white"/>
</svg>
