<svg width="1171" height="1248" viewBox="0 0 1171 1248" fill="none" xmlns="http://www.w3.org/2000/svg">
<path d="M67.7213 863.185C79.4319 860.62 91.2967 857.683 103.319 853.924C93.7718 840.871 69.897 839.199 67.7213 863.185ZM190.305 1234.22C182.062 1240.5 172.983 1227.32 181.224 1221.04L219.828 1191.62C213.334 1188.46 206.291 1183.19 198.948 1175.78C176.195 1160.98 118.752 1048.87 106.083 1022.8C81.8018 972.826 59.3843 919.382 53.8498 886.953C51.7527 874.665 51.2836 862.476 54.0528 852.312L9.6802 865.11C-0.114744 867.916 -4.16962 852.251 5.62407 849.445L58.9891 834.055C82.1617 827.371 103.055 826.48 119.847 848.23C123.406 846.884 126.979 845.45 130.566 843.916C235.549 799.017 279.904 717.792 425.579 672.62C502.61 648.734 576.443 643.915 626.182 663.483C653.989 647 693.45 626.385 724.874 643.242L1109.16 31.0849C1145 -26.0095 1193.24 2.58769 1158.32 60.0439L757.066 720.334C843.41 781.091 777.65 861.209 694.569 822.406L689.501 830.393C775.826 859.885 773.956 943.005 704.961 961.408C736.452 1001.71 693.194 1059.04 644.96 1056.73C654.77 1070.52 653.356 1089.26 647.728 1104.59C634.804 1139.8 608.382 1137.96 577.293 1130.8C560.226 1126.87 541.692 1120.38 525.721 1113.36L454.624 1232.94C430.734 1273.12 341.935 1223.18 369.884 1179.35L395.328 1139.44C376.719 1135.05 356.632 1133.5 335.58 1134.88C309.704 1136.56 284.071 1142.53 259.604 1151.44C260.5 1179.68 254.63 1185.21 236.756 1198.83L190.305 1234.22V1234.22ZM244.162 1157.52C235.042 1161.37 225.882 1165.71 216.715 1170.54C221.459 1174.43 225.793 1176.99 229.612 1178.22C242.348 1182.34 246.05 1165.99 244.162 1157.52ZM204.685 1158.74C227.319 1146.37 250.991 1136.31 275.588 1129.22C265.691 1124.63 257.669 1118.4 252.774 1111.8C246.531 1103.39 258.699 1093.39 264.942 1101.8C269.033 1107.32 276.752 1112.66 286.561 1116.3C306.279 1123.6 315.959 1119.85 334.506 1118.51C359.553 1116.71 382.853 1119.11 404.491 1125.07L446.49 1059.2C417.875 1020.48 443.709 982.04 483.099 972.155C478.858 967.514 475.367 962.471 473.008 956.905C459.665 966.646 445.517 974.668 429.341 980.53C390.759 994.512 341.407 995.746 265.09 977.921C260.928 976.954 258.299 972.621 259.218 968.243C260.138 963.864 264.257 961.099 268.42 962.066C341.565 979.15 388.321 978.165 424.316 965.12C439.549 959.6 452.995 951.832 465.807 942.303C487.644 926.064 509.487 904.392 528.296 882.719C548.606 859.316 563.972 837.979 589.473 819.096C634.941 785.426 703.703 765.418 726.272 707.801C732.016 693.138 737.15 671.539 722.433 660.647C693.653 639.349 649.284 669.113 623.362 683.737C545.044 727.931 474.089 710.239 401.375 751.726C392.415 756.835 385.031 742.507 393.989 737.398C465.986 696.321 534.522 711.923 607.182 674.215C561.134 661.461 497.059 667.409 429.937 688.222C285.777 732.923 241.827 813.91 136.378 859.008C112.995 869.008 90.386 874.934 68.3684 879.672C68.5656 881.133 68.7924 882.607 69.0451 884.087C74.3254 915.028 96.4193 967.295 120.254 1016.19C141.567 1059.91 172.525 1122.47 204.685 1158.74V1158.74ZM744.827 765.172C739.189 762.735 742.713 753.718 748.35 756.156C770.69 765.81 754.882 807.364 727.894 801.141C721.923 799.784 723.883 790.233 729.856 791.589C746.252 795.37 756.123 770.053 744.827 765.172ZM644.997 897.577C643.767 898.822 641.81 898.782 640.627 897.488C639.443 896.194 639.481 894.135 640.711 892.89C648.215 885.267 651.176 870.152 650.428 859.577C650.142 855.305 656.316 854.847 656.603 859.119C657.492 871.703 653.883 888.55 644.997 897.577ZM582.868 986.77C579.22 988.646 576.509 982.813 580.155 980.937C588.238 976.755 591.476 963.34 589.194 954.757C588.111 950.636 594.069 948.905 595.151 953.025C598.245 964.662 593.65 981.191 582.868 986.77V986.77ZM539.55 1078.78C534.397 1082.22 529.421 1073.97 534.574 1070.53C542.163 1065.45 548.543 1057.8 548.684 1047.89C548.755 1041.48 558.018 1041.6 557.946 1048.01C557.756 1061.37 549.899 1071.86 539.55 1078.78V1078.78ZM517.732 969.953C512.118 967.465 515.713 958.486 521.328 960.974C538.399 968.579 557.631 931.751 536.001 922.026C530.388 919.514 534.019 910.535 539.633 913.047C572.699 927.915 546.022 982.555 517.732 969.953V969.953ZM473.703 1052.75C468.525 1049.38 473.392 1041.09 478.57 1044.46C489.203 1051.34 505.526 1046.27 508.766 1033.26C511.147 1023.71 504.42 1012.27 489.964 1005.09C484.446 1002.35 488.405 993.522 493.924 996.261C514.396 1006.43 521.894 1023.62 517.275 1037.53C511.204 1055.81 489.13 1062.73 473.703 1052.75V1052.75ZM457.335 1071.36L382.718 1188.39C366.92 1213.17 428.376 1246.39 441.487 1224.34L511.358 1106.83C503.906 1105.56 462.434 1076.14 457.335 1071.36ZM518.239 1092.01C535.511 1100.87 559.193 1109.96 580.562 1114.88C602.359 1119.9 622.746 1125.35 632.633 1100.17C642.65 1074.65 634.024 1063.62 614.271 1049.93C576.876 1032.81 534.751 1011.17 500.765 987.21C484.69 980.104 425.054 1009.9 461.874 1053.27C474.38 1067.99 499.58 1082.45 518.239 1092.01V1092.01ZM517.341 979.145C548.469 999.841 608.858 1034.67 635.157 1039.11C683.745 1047.3 716.332 996.024 689.751 968.142C683.553 961.641 674.55 957.561 666.45 953.481C645.685 943.022 549.075 894.32 532.58 901.94C518.45 917.282 501.808 933.499 485.968 946.743C489.671 960.822 506.223 971.752 517.341 979.145V979.145ZM733.803 920.218C748.246 896.388 743.78 862.168 673.924 842.444C651.724 837.668 627.485 828.564 607.285 826.13C581.157 843.339 565.322 862.722 550.415 880.97C548.909 882.814 547.412 884.645 545.914 886.465C583.595 892.478 638.157 921.199 673.04 938.77C696.874 950.774 716.484 948.796 733.803 920.218V920.218ZM673.926 825.67L730.254 734.313C706.208 772.307 663.587 792.883 626.633 814.35C642.288 818.148 658.425 821.504 673.926 825.67V825.67ZM574.277 884.304C568.807 881.465 572.91 872.715 578.381 875.555C607.984 891.014 618.544 854.46 601.545 846.715C595.955 844.178 599.623 835.237 605.214 837.775C633.771 850.786 615.197 905.674 574.277 884.304V884.304ZM507.225 757.856C503.774 755.615 507.018 750.087 510.47 752.329C521.454 759.456 525.769 774.277 525.385 787.214C525.274 791.485 519.099 791.309 519.21 787.036C519.521 776.551 516.213 763.689 507.225 757.856ZM589.133 718.868C585.582 716.791 588.585 711.111 592.136 713.188C602.798 719.435 608.116 732.271 609.598 744.509C610.107 748.748 603.98 749.562 603.471 745.324C602.252 735.246 597.971 724.046 589.133 718.868ZM637.037 686.883C637.538 680.476 646.8 681.277 646.299 687.685C645.223 701.022 657.887 714.103 670.392 712.521C682.126 711.036 708.734 691.422 707.286 678.769C706.57 672.386 715.796 671.242 716.512 677.623C718.697 696.718 687.845 720.154 671.481 722.226C652.859 724.582 635.514 705.749 637.037 686.883V686.883ZM737.378 652.843C752.452 669.773 748.196 694.481 740.56 713.978C738.259 719.851 735.567 725.358 732.542 730.548L1145.31 51.3202C1169.89 10.8626 1145.37 2.9116 1122.05 40.0635L737.378 652.843V652.843ZM748.755 734.01C733.641 758.881 718.868 784.11 703.301 808.644C766.293 835.218 817.843 782.841 748.755 734.01Z" fill="black"/>
</svg>
